<?xml version="1.0" encoding="UTF-8" standalone="no"?>
<!DOCTYPE svg PUBLIC "-//W3C//DTD SVG 1.1//EN"
"http://www.w3.org/Graphics/SVG/1.1/DTD/svg11.dtd">
<svg width="700" height="1375" viewBox="-25 -25 1400 2750"
xmlns="http://www.w3.org/2000/svg"
xmlns:xlink="http://www.w3.org/1999/xlink">
<rect width="1350" height="2700" x="0" y="0" fill="#C0D0C0" /> <rect width="1400" height="25" x="-25" y="-25" fill="darkgreen" />
 <rect width="1400" height="25" x="-25" y="2700" fill="darkgreen" />
 <rect width="25" height="2750" x="-25" y="-25" fill="darkgreen" />
 <rect width="25" height="2750" x="1350" y="-25" fill="darkgreen" />
 <circle cx="0" cy="0" r="114" fill="black" />
 <circle cx="1350" cy="0" r="114" fill="black" />
 <circle cx="0" cy="1350" r="114" fill="black" />
 <circle cx="1350" cy="1350" r="114" fill="black" />
 <circle cx="0" cy="2700" r="114" fill="black" />
 <circle cx="1350" cy="2700" r="114" fill="black" />
 <circle cx="676" cy="2024" r="28" fill="WHITE" />
 <circle cx="675" cy="725" r="28" fill="YELLOW" />
 <circle cx="640" cy="640" r="28" fill="BLUE" />
 <circle cx="705" cy="665" r="28" fill="RED" />
 <circle cx="600" cy="575" r="28" fill="PURPLE" />
 <circle cx="676" cy="578" r="28" fill="ORANGE" />
 <circle cx="740" cy="574" r="28" fill="GREEN" />
 <circle cx="550" cy="525" r="28" fill="BROWN" />
 <circle cx="630" cy="512" r="28" fill="BLACK" />
 <circle cx="710" cy="499" r="28" fill="LIGHTYELLOW" />
 <circle cx="800" cy="512" r="28" fill="LIGHTBLUE" />
 <circle cx="500" cy="445" r="28" fill="PINK" />
 <circle cx="590" cy="420" r="28" fill="MEDIUMPURPLE" />
 <circle cx="675" cy="410" r="28" fill="LIGHTSALMON" />
 <circle cx="775" cy="425" r="28" fill="LIGHTGREEN" />
 <circle cx="845" cy="450" r="28" fill="SANDYBROWN" />
</svg>